PathFileType	4	(X/Y/Z)	E:\Qualisys_Data\Carbon_Farble_Plate\Data\Amateur_Runner\S14\T3\S14T3V11_c3d.trc
DataRate	CameraRate	NumFrames	NumMarkers	Units	OrigDataRate	OrigDataStartFrame	OrigNumFrames
200.000000	200.000000	4	39	mm	200.000000	39	313
Frame#	Time	LSHO			RSHO			LICST			RICST			LASIS			LHEEL			RASIS			LTROC			RTROC			SACR			LTH1			LSK4			LTH2			LTH3			RHM5			LSK2			LTH4			RTH1			LTOE			RTH2			RTH3			RTH4			LLEP			RLEP			LSK1			LSK3			RSK1			LHM5			RSK2			LFT1			RSK3			RSK4			LLME			RLME			RTOE			RHEEL			RFT1			RFT2			LFT2			
		X1	Y1	Z1	X2	Y2	Z2	X3	Y3	Z3	X4	Y4	Z4	X5	Y5	Z5	X6	Y6	Z6	X7	Y7	Z7	X8	Y8	Z8	X9	Y9	Z9	X10	Y10	Z10	X11	Y11	Z11	X12	Y12	Z12	X13	Y13	Z13	X14	Y14	Z14	X15	Y15	Z15	X16	Y16	Z16	X17	Y17	Z17	X18	Y18	Z18	X19	Y19	Z19	X20	Y20	Z20	X21	Y21	Z21	X22	Y22	Z22	X23	Y23	Z23	X24	Y24	Z24	X25	Y25	Z25	X26	Y26	Z26	X27	Y27	Z27	X28	Y28	Z28	X29	Y29	Z29	X30	Y30	Z30	X31	Y31	Z31	X32	Y32	Z32	X33	Y33	Z33	X34	Y34	Z34	X35	Y35	Z35	X36	Y36	Z36	X37	Y37	Z37	X38	Y38	Z38	X39	Y39	Z39	

40	0.195	-1782.190795898438	1381.407470703125	-488.27783203125	-1765.714111328125	1363.75927734375	-179.0574188232422	-1857.078369140625	934.37255859375	-476.3446350097656	-1826.36181640625	945.27392578125	-196.3301544189453	-1812.62939453125	885.8367309570312	-454.27099609375	-2149.76708984375	383.14111328125	-350.2289733886719	-1799.212646484375	907.1322021484376	-217.4579315185547	-1941.31201171875	808.2772216796875	-484.6141967773438	-1937.211181640625	832.3812255859375	-158.5299224853516	-1981.30419921875	943.4396362304688	-337.6925659179688	-1790.094848632812	613.583740234375	-503.4564514160156	-1964.5263671875	431.6541137695312	-443.5010681152344	-1856.977416992188	585.8726196289062	-473.3170776367188	-1742.143798828125	526.6995239257812	-487.0269775390625	-1912.35595703125	74.82779693603516	-194.5236206054688	-1875.181274414062	464.9357299804688	-470.5998229980469	-1814.222778320312	497.1116638183594	-462.8479309082031	-1773.851440429688	622.8810424804688	-165.2091979980469	-2073.613525390625	135.2341613769531	-387.1617431640625	-1850.333618164062	614.8694458007812	-158.7668151855469	-1759.53369140625	527.936767578125	-197.2215270996094	-1841.853393554688	515.6148681640625	-182.0637664794922	-1784.526977539062	460.8852844238281	-483.2411804199219	-1809.032958984375	451.7579040527344	-194.6613159179688	-1844.384521484375	388.2948303222656	-466.9089965820312	-1938.566772460938	355.2396850585938	-442.8963623046875	-1837.440551757812	327.9498291015625	-199.1779327392578	-2114.2451171875	197.7003784179688	-444.7299194335938	-1911.7216796875	368.3280639648438	-188.6439056396484	-2176.197998046875	362.9624633789062	-327.2430725097656	-1893.612670898438	244.0030517578125	-217.7145385742188	-1958.403564453125	286.0557250976562	-204.5180206298828	-2108.757568359375	342.126953125	-414.1228942871094	-2026.422729492188	131.5523376464844	-232.9170074462891	-1837.723999023438	75.80664825439453	-263.8458557128906	-2092.960693359375	108.0098419189453	-287.9827575683594	-2084.87451171875	75.7364273071289	-313.2894287109375	-2099.316650390625	88.3018569946289	-262.6875	-2181.987548828125	373.045166015625	-379.2452697753906
41	0.2	-1768.808471679688	1383.222290039062	-489.7708129882812	-1746.595336914062	1365.7119140625	-180.3896789550781	-1839.421264648438	934.819091796875	-474.8676147460938	-1809.921508789062	946.6867065429688	-195.9398956298828	-1796.198608398438	887.1914672851562	-453.6515808105469	-2127.835205078125	377.3279113769531	-353.5355529785156	-1783.172607421875	908.190673828125	-217.3262939453125	-1924.00830078125	809.5238037109375	-485.5443115234375	-1924.047485351562	833.4469604492188	-159.8265838623047	-1965.36181640625	944.7098388671876	-337.8007202148438	-1770.089477539062	618.5126342773438	-503.17919921875	-1940.2724609375	431.2309875488281	-444.1199035644531	-1836.813598632812	588.0270385742188	-473.7760314941406	-1720.251831054688	531.50537109375	-487.2725524902344	-1911.724609375	74.8631362915039	-194.1237945556641	-1851.331909179688	466.3053283691406	-470.8911743164062	-1791.565795898438	500.6340942382812	-462.1780090332031	-1763.860717773438	621.0050659179688	-164.8800659179688	-2038.511352539062	132.0293121337891	-387.9356079101562	-1841.103515625	615.4468994140625	-159.1054534912109	-1751.6005859375	525.4188232421875	-197.0155181884766	-1835.565795898438	515.8528442382812	-182.4842681884766	-1760.839599609375	465.2068481445312	-483.0849304199219	-1806.936889648438	450.3606872558594	-196.2673645019531	-1818.315795898438	390.783447265625	-467.0439453125	-1911.023681640625	355.2340698242188	-442.7735290527344	-1833.265014648438	327.9202575683594	-198.9390563964844	-2080.169921875	193.3011474609375	-446.5763244628906	-1908.642822265625	368.8968505859375	-188.8746948242188	-2150.17431640625	354.6859436035156	-328.0421142578125	-1891.349853515625	243.7492828369141	-217.9696807861328	-1955.721801757812	286.7388000488281	-204.2018737792969	-2081.767333984375	336.5026550292969	-414.9815979003906	-2025.616333007812	132.8644561767578	-232.6506500244141	-1837.693969726562	75.82839965820312	-263.9998168945312	-2092.447509765625	109.6378631591797	-287.6964416503906	-2083.878173828125	77.18375396728516	-312.8936157226562	-2099.05322265625	88.87842559814453	-262.6914672851562	-2155.992919921875	365.1968383789062	-380.457763671875
42	0.205	-1754.734741210938	1385.021850585938	-490.1532592773438	-1728.186279296875	1367.841796875	-182.3328704833984	-1824.0078125	937.5518188476562	-475.5293884277344	-1795.063110351562	948.1802978515624	-195.7854614257812	-1779.3349609375	888.6483154296875	-452.9360656738281	-2103.65869140625	371.3452758789062	-354.7931213378906	-1767.715209960938	909.4891357421876	-217.1621704101562	-1907.234985351562	811.7520141601562	-486.8811645507812	-1909.613647460938	835.1741333007812	-160.4141235351562	-1949.113403320312	946.84716796875	-338.0877990722656	-1750.349731445312	622.384765625	-503.5313415527344	-1915.612060546875	430.1004028320312	-444.197265625	-1816.397583007812	590.8943481445312	-473.54833984375	-1698.291137695312	537.2823486328125	-487.1727294921875	-1911.827392578125	74.7359390258789	-194.3941040039062	-1828.396118164062	467.9175415039062	-471.1587219238281	-1768.757568359375	504.5057067871094	-461.9497375488281	-1753.869262695312	619.456787109375	-165.0995788574219	-2003.409545898438	128.63134765625	-389.7169799804688	-1831.36083984375	616.2549438476562	-158.9942779541016	-1745.984375	523.6030883789062	-196.9829711914062	-1828.72509765625	516.301513671875	-183.2560577392578	-1737.2529296875	469.4893798828125	-482.7559814453125	-1800.52392578125	449.4058532714844	-195.3150329589844	-1793.490234375	393.6279296875	-467.5986633300781	-1884.978637695312	355.4308471679688	-443.7441101074219	-1830.3037109375	327.0968322753906	-199.0623779296875	-2046.88427734375	188.3928375244141	-447.0545043945312	-1903.640380859375	369.463134765625	-188.2708587646484	-2124.334228515625	345.8158874511719	-329.4963073730469	-1888.574951171875	244.5125427246094	-217.4019927978516	-1952.246948242188	288.2428588867188	-203.5871887207031	-2054.5517578125	330.8931884765625	-415.6968688964844	-2024.507568359375	135.2292327880859	-232.7188415527344	-1837.717163085938	75.78622436523438	-263.8801574707031	-2091.373291015625	111.1554794311523	-287.9135131835938	-2083.68896484375	79.38082122802734	-313.0382080078125	-2098.7001953125	90.96521759033205	-263.1847839355469	-2131.212890625	357.1842956542969	-381.6036682128906
43	0.21	-1741.613159179688	1387.666870117188	-491.4497680664062	-1709.786987304688	1370.3671875	-184.1445617675781	-1807.03857421875	939.4966430664062	-474.8884887695312	-1778.78125	949.823486328125	-195.4700164794922	-1762.356567382812	890.4817504882812	-452.1499328613281	-2079.06005859375	362.0641784667969	-356.3785705566406	-1751.638916015625	910.6895751953124	-216.0431976318359	-1889.742797851562	814.6949462890625	-487.8504333496094	-1894.272216796875	836.8724975585938	-160.8276824951172	-1933.597778320312	949.088623046875	-338.9814147949219	-1729.620239257812	626.446044921875	-503.0751647949219	-1891.25927734375	427.8628540039062	-444.8165588378906	-1796.267456054688	594.44384765625	-473.5360412597656	-1676.581176757812	542.4761352539062	-486.8198547363281	-1911.154296875	75.03398132324219	-194.1068572998047	-1805.145141601562	469.3907165527344	-471.0617370605469	-1746.78271484375	508.6138610839844	-461.5527954101562	-1744.962036132812	618.0844116210938	-164.7764739990234	-1967.57421875	125.0472717285156	-390.5483703613281	-1823.373657226562	616.6786499023438	-159.4283294677734	-1738.703491210938	522.1715698242188	-197.0219268798828	-1822.000366210938	517.1408081054688	-183.5010986328125	-1714.259399414062	473.9455261230469	-482.5708312988281	-1797.151123046875	449.3348388671875	-196.1775970458984	-1767.2421875	395.9435424804688	-466.6517333984375	-1857.670776367188	354.8092651367188	-443.4642028808594	-1827.17724609375	328.6150817871094	-198.7415161132812	-2013.193603515625	183.4462738037109	-448.0703125	-1901.119873046875	371.0498657226562	-189.3770599365234	-2098.104736328125	336.4772644042969	-330.5652770996094	-1886.480224609375	245.4610137939453	-217.3019409179688	-1950.098388671875	289.9315490722656	-203.8644561767578	-2027.607788085938	324.9874877929688	-416.6554260253906	-2024.055297851562	136.8479461669922	-232.1751251220703	-1837.654296875	75.78451538085938	-263.8182067871094	-2091.90673828125	113.6217880249023	-289.0223083496094	-2086.551513671875	83.16387939453125	-316.2100219726562	-2097.756103515625	92.45138549804688	-262.82421875	-2106.26904296875	348.3763427734375	-382.5494995117188
